<?xml version="1.0" encoding="UTF-8"?>
<svg xmlns="http://www.w3.org/2000/svg" xmlns:xlink="http://www.w3.org/1999/xlink" width="40px" height="40px" viewBox="0 0 40 40" version="1.1">
<g id="surface1">
<path style=" stroke:none;fill-rule:nonzero;fill:rgb(75%,0%,0%);fill-opacity:1;" d="M 27.796875 1.375 C 27.78125 1.453125 27.71875 1.65625 27.671875 1.84375 C 27.578125 2.203125 27.5 2.25 27.21875 2.046875 C 27.015625 1.90625 27.109375 1.703125 26.265625 4.15625 C 25.546875 6.265625 25.125 7.421875 24.453125 9.078125 C 23.609375 11.171875 22.234375 13.96875 22.0625 13.96875 C 22.03125 13.96875 22 13.71875 22.03125 13.390625 C 22.0625 12.78125 22.203125 12.484375 22.484375 12.484375 C 22.5625 12.484375 22.6875 12.390625 22.75 12.28125 C 22.90625 12.03125 22.84375 11.984375 22.25 11.859375 C 21.234375 11.640625 20.75 12.109375 20.75 13.296875 C 20.75 14.03125 20.9375 14.6875 21.390625 15.640625 C 22.8125 18.53125 25.65625 20.734375 26.96875 19.96875 C 27.359375 19.75 27.53125 19.390625 27.578125 18.734375 C 27.59375 18.359375 27.578125 18.15625 27.53125 18.125 C 27.375 18.03125 27.140625 18.15625 27.09375 18.390625 C 27.03125 18.703125 26.71875 18.9375 26.359375 18.9375 C 26.046875 18.921875 25.25 18.640625 25.21875 18.5 C 25.171875 18.328125 28.0625 17.203125 30.484375 16.453125 C 32.15625 15.9375 34.453125 15.3125 36.15625 14.890625 C 37.625 14.53125 37.53125 14.59375 37.40625 14.125 C 37.375 14 37.421875 13.96875 37.90625 13.921875 L 38.4375 13.875 L 38.34375 13.5625 L 38.25 13.234375 L 37.28125 13.265625 L 37.328125 13.03125 C 37.359375 12.875 37.34375 12.796875 37.28125 12.796875 C 37.234375 12.796875 36.640625 12.921875 35.96875 13.0625 C 32.6875 13.796875 27.828125 15.34375 24.453125 16.71875 L 23.59375 17.0625 L 23.375 16.8125 C 23.265625 16.671875 23.171875 16.515625 23.1875 16.484375 C 23.203125 16.4375 23.75 16.171875 24.40625 15.875 C 26.875 14.765625 29.859375 13.234375 32.3125 11.796875 C 33.5625 11.0625 35.796875 9.609375 35.796875 9.546875 C 35.796875 9.515625 35.703125 9.421875 35.59375 9.328125 L 35.390625 9.15625 L 35.796875 8.953125 C 36.234375 8.734375 36.234375 8.71875 35.890625 8.296875 L 35.75 8.109375 L 35.34375 8.375 C 34.953125 8.625 34.9375 8.625 34.828125 8.484375 C 34.78125 8.40625 34.71875 8.3125 34.703125 8.265625 C 34.671875 8.171875 34.421875 8.296875 32.65625 9.40625 C 29.78125 11.203125 26.390625 13.078125 26.703125 12.703125 C 26.78125 12.609375 27.296875 12.0625 27.828125 11.515625 C 29.375 9.90625 31 8.03125 32.234375 6.4375 L 32.875 5.609375 L 32.640625 5.546875 C 32.515625 5.515625 32.421875 5.46875 32.421875 5.453125 C 32.421875 5.421875 32.53125 5.25 32.671875 5.046875 C 33.0625 4.5 33.0625 4.515625 32.78125 4.34375 C 32.640625 4.265625 32.484375 4.1875 32.4375 4.1875 C 32.390625 4.1875 32.203125 4.390625 32.015625 4.65625 L 31.703125 5.125 L 31.484375 4.921875 L 31.28125 4.71875 L 30.9375 5.125 C 30.75 5.34375 30.15625 6.0625 29.640625 6.703125 C 28.09375 8.578125 25.609375 11.34375 25.546875 11.296875 C 25.53125 11.28125 25.6875 10.90625 25.875 10.453125 C 26.78125 8.421875 27.96875 5.265625 28.5 3.515625 C 28.65625 3 28.796875 2.515625 28.828125 2.4375 C 28.859375 2.328125 28.8125 2.3125 28.59375 2.3125 C 28.296875 2.3125 28.296875 2.34375 28.484375 1.625 C 28.515625 1.484375 28.53125 1.34375 28.53125 1.34375 C 28.515625 1.34375 28.375 1.3125 28.1875 1.28125 C 27.890625 1.25 27.828125 1.265625 27.796875 1.375 Z M 27.796875 1.375 "/>
<path style=" stroke:none;fill-rule:nonzero;fill:rgb(75%,0%,0%);fill-opacity:1;" d="M 19.625 13.140625 C 12.953125 17.78125 6.953125 24.25 2.375 31.703125 C 1.578125 33 1.5625 33.03125 1.5625 33.484375 C 1.578125 35.15625 4.4375 37.75 7.140625 38.53125 C 7.921875 38.75 8.890625 38.796875 9.3125 38.609375 C 9.640625 38.46875 9.796875 38.28125 10.375 37.28125 C 13.765625 31.359375 19.734375 24.921875 25.625 20.828125 C 25.921875 20.625 26.1875 20.4375 26.21875 20.40625 C 26.25 20.390625 26.125 20.359375 25.953125 20.359375 C 24.46875 20.328125 22.1875 18.3125 21.015625 16 C 20.390625 14.78125 20.1875 13.484375 20.484375 12.78125 C 20.546875 12.625 20.59375 12.5 20.578125 12.5 C 20.5625 12.5 20.140625 12.78125 19.625 13.140625 Z M 19.625 13.140625 "/>
</g>
</svg>
