<?xml version="1.0" encoding="UTF-8"?>
<svg xmlns="http://www.w3.org/2000/svg" xmlns:xlink="http://www.w3.org/1999/xlink" width="40px" height="40px" viewBox="0 0 40 40" version="1.1">
<g id="surface1">
<path style=" stroke:none;fill-rule:nonzero;fill:rgb(0%,0%,0%);fill-opacity:1;" d="M 34.1875 1.5625 L 5.8125 1.5625 C 3.46875 1.5625 1.5625 3.46875 1.5625 5.8125 L 1.5625 34.1875 C 1.5625 36.53125 3.46875 38.4375 5.8125 38.4375 L 34.171875 38.4375 C 36.515625 38.4375 38.421875 36.53125 38.421875 34.1875 L 38.421875 5.8125 C 38.4375 3.46875 36.53125 1.5625 34.1875 1.5625 Z M 35.59375 34.1875 C 35.59375 34.96875 34.953125 35.609375 34.171875 35.609375 L 5.8125 35.609375 C 5.03125 35.609375 4.390625 34.96875 4.390625 34.1875 L 4.390625 5.828125 L 35.59375 5.828125 Z M 29.96875 15.765625 L 10.046875 15.765625 L 10.046875 9.9375 L 29.96875 9.9375 Z M 15.703125 31.328125 L 10.046875 31.328125 L 10.046875 20 L 15.6875 20 Z M 29.96875 31.328125 L 20 31.328125 L 20 20 L 29.96875 20 Z M 29.96875 31.328125 "/>
</g>
</svg>
