<?xml version="1.0" encoding="utf-8"?>
<!-- Svg Vector Icons : http://www.onlinewebfonts.com/icon -->
<!DOCTYPE svg PUBLIC "-//W3C//DTD SVG 1.1//EN" "http://www.w3.org/Graphics/SVG/1.1/DTD/svg11.dtd">
<svg version="1.1" xmlns="http://www.w3.org/2000/svg" xmlns:xlink="http://www.w3.org/1999/xlink" x="0px" y="0px" viewBox="0 0 256 256" enable-background="new 0 0 256 256" xml:space="preserve">
<metadata> Svg Vector Icons : http://www.onlinewebfonts.com/icon </metadata>
<g><g><path fill="#000000" d="M218.8,10H37.2C22.2,10,10,22.2,10,37.2v181.6c0,15,12.2,27.2,27.2,27.2h181.5c15,0,27.2-12.2,27.2-27.2V37.2C246,22.2,233.8,10,218.8,10z M227.8,218.8c0,5-4.1,9.1-9.1,9.1H37.2c-5,0-9.1-4.1-9.1-9.1V37.3h199.7V218.8z M191.8,100.9H64.3V63.6h127.5V100.9z M100.5,200.5H64.3V128h36.1L100.5,200.5L100.5,200.5z M191.8,200.5H128V128h63.8V200.5z"/></g></g>
</svg>