<?xml version="1.0" encoding="UTF-8"?>
<svg xmlns="http://www.w3.org/2000/svg" xmlns:xlink="http://www.w3.org/1999/xlink" width="40px" height="40px" viewBox="0 0 40 40" version="1.1">
<g id="surface1">
<path style=" stroke:none;fill-rule:nonzero;fill:rgb(0%,0%,0%);fill-opacity:1;" d="M 25.515625 1.625 C 25.4375 1.640625 22.109375 5.09375 18.09375 9.265625 C 14.0625 13.4375 10.25 17.421875 9.578125 18.109375 C 8.921875 18.796875 8.28125 19.5625 8.15625 19.796875 C 7.921875 20.265625 7.875 20.90625 8.03125 21.359375 C 8.171875 21.734375 8.796875 22.25 9.265625 22.375 C 9.5 22.453125 11.03125 22.484375 13.1875 22.484375 C 15.375 22.484375 16.71875 22.53125 16.71875 22.59375 C 16.71875 22.640625 16 25.765625 15.109375 29.515625 C 13.09375 38.140625 13.21875 37.546875 13.375 37.921875 C 13.53125 38.28125 14.03125 38.515625 14.421875 38.421875 C 14.5625 38.375 14.828125 38.1875 15.015625 38.015625 C 15.1875 37.828125 18.96875 33.875 23.421875 29.25 C 29 23.453125 31.609375 20.65625 31.796875 20.296875 C 32.28125 19.390625 32.078125 18.375 31.28125 17.84375 L 30.90625 17.59375 L 27.109375 17.5625 C 25.03125 17.546875 23.3125 17.515625 23.3125 17.5 C 23.3125 17.484375 24.109375 14.109375 25.0625 10.015625 C 26.03125 5.90625 26.8125 2.46875 26.8125 2.359375 C 26.8125 2.046875 26.25 1.5625 25.921875 1.5625 C 25.765625 1.5625 25.578125 1.59375 25.515625 1.625 Z M 23.875 6.984375 C 23.703125 7.765625 23.03125 10.671875 22.375 13.421875 C 21.59375 16.78125 21.234375 18.515625 21.28125 18.703125 C 21.3125 18.859375 21.46875 19.0625 21.625 19.15625 C 21.875 19.328125 22.3125 19.34375 26.078125 19.390625 L 30.25 19.4375 L 23.09375 26.890625 C 19.171875 30.984375 15.921875 34.328125 15.90625 34.296875 C 15.890625 34.28125 16.546875 31.40625 17.375 27.90625 C 18.640625 22.46875 18.84375 21.5 18.75 21.234375 C 18.546875 20.625 18.46875 20.609375 13.921875 20.609375 C 9.921875 20.609375 9.78125 20.59375 9.921875 20.421875 C 10.046875 20.25 24.140625 5.5625 24.1875 5.5625 C 24.21875 5.578125 24.0625 6.21875 23.875 6.984375 Z M 23.875 6.984375 "/>
</g>
</svg>
