<?xml version="1.0" encoding="utf-8"?>
<!-- Svg Vector Icons : http://www.onlinewebfonts.com/icon -->
<!DOCTYPE svg PUBLIC "-//W3C//DTD SVG 1.1//EN" "http://www.w3.org/Graphics/SVG/1.1/DTD/svg11.dtd">
<svg version="1.1" xmlns="http://www.w3.org/2000/svg" xmlns:xlink="http://www.w3.org/1999/xlink" x="0px" y="0px" viewBox="0 0 256 256" enable-background="new 0 0 256 256" xml:space="preserve">
<metadata> Svg Vector Icons : http://www.onlinewebfonts.com/icon </metadata>
<g><g><g><path fill="#000000" d="M163.3,10.4c-0.5,0.1-21.8,22.2-47.5,48.9C90,86,65.6,111.5,61.3,115.9c-4.2,4.4-8.3,9.3-9.1,10.8c-1.5,3-1.8,7.1-0.8,10c0.9,2.4,4.9,5.7,7.9,6.5c1.5,0.5,11.3,0.7,25.1,0.7c14,0,22.6,0.3,22.6,0.7c0,0.3-4.6,20.3-10.3,44.3c-12.9,55.2-12.1,51.4-11.1,53.8c1,2.3,4.2,3.8,6.7,3.2c0.9-0.3,2.6-1.5,3.8-2.6c1.1-1.2,25.3-26.5,53.8-56.1c35.7-37.1,52.4-55,53.6-57.3c3.1-5.8,1.8-12.3-3.3-15.7l-2.4-1.6l-24.3-0.2c-13.3-0.1-24.3-0.3-24.3-0.4s5.1-21.7,11.2-47.9c6.2-26.3,11.2-48.3,11.2-49c0-2-3.6-5.1-5.7-5.1C164.9,10,163.7,10.2,163.3,10.4z M152.8,44.7c-1.1,5-5.4,23.6-9.6,41.2c-5,21.5-7.3,32.6-7,33.8c0.2,1,1.2,2.3,2.2,2.9c1.6,1.1,4.4,1.2,28.5,1.5l26.7,0.3l-45.8,47.7c-25.1,26.2-45.9,47.6-46,47.4c-0.1-0.1,4.1-18.5,9.4-40.9c8.1-34.8,9.4-41,8.8-42.7c-1.3-3.9-1.8-4-30.9-4c-25.6,0-26.5-0.1-25.6-1.2c0.8-1.1,91-95.1,91.3-95.1C155,35.7,154,39.8,152.8,44.7z"/></g></g></g>
</svg>