<?xml version="1.0" encoding="utf-8"?>
<!-- Svg Vector Icons : http://www.onlinewebfonts.com/icon -->
<!DOCTYPE svg PUBLIC "-//W3C//DTD SVG 1.1//EN" "http://www.w3.org/Graphics/SVG/1.1/DTD/svg11.dtd">
<svg version="1.1" xmlns="http://www.w3.org/2000/svg" xmlns:xlink="http://www.w3.org/1999/xlink" x="0px" y="0px" viewBox="0 0 256 256" enable-background="new 0 0 256 256" xml:space="preserve">
<metadata> Svg Vector Icons : http://www.onlinewebfonts.com/icon </metadata>
<g><g><path fill="#000000" d="M10,92.6h17.3v145H10V92.6z"/><path fill="#000000" d="M228.7,98.3H246v139.3h-17.3V98.3z"/><path fill="#000000" d="M10,221.4h219.5v16.2H10V221.4z"/><path fill="#000000" d="M25.9,92.6h68.3v17H25.9V92.6L25.9,92.6z"/><path fill="#000000" d="M161.8,92.6H246v17h-84.2V92.6z"/><path fill="#000000" d="M176.6,65.3l-36.4-35.3l0,0l-12.1-11.8l-0.3,0.3l0,0l-36.7,35v0L78.9,65.3l11.8,12.3l28.2-26.9v153.1h17.3V49.8l16.6,16l0,0l12.1,11.8L176.6,65.3z"/></g></g>
</svg>