<?xml version="1.0" encoding="UTF-8"?>
<svg xmlns="http://www.w3.org/2000/svg" xmlns:xlink="http://www.w3.org/1999/xlink" width="40px" height="40px" viewBox="0 0 40 40" version="1.1">
<g id="surface1">
<path style=" stroke:none;fill-rule:nonzero;fill:rgb(0%,0%,0%);fill-opacity:1;" d="M 1.5625 14.46875 L 4.265625 14.46875 L 4.265625 37.125 L 1.5625 37.125 Z M 1.5625 14.46875 "/>
<path style=" stroke:none;fill-rule:nonzero;fill:rgb(0%,0%,0%);fill-opacity:1;" d="M 35.734375 15.359375 L 38.4375 15.359375 L 38.4375 37.125 L 35.734375 37.125 Z M 35.734375 15.359375 "/>
<path style=" stroke:none;fill-rule:nonzero;fill:rgb(0%,0%,0%);fill-opacity:1;" d="M 1.5625 34.59375 L 35.859375 34.59375 L 35.859375 37.125 L 1.5625 37.125 Z M 1.5625 34.59375 "/>
<path style=" stroke:none;fill-rule:nonzero;fill:rgb(0%,0%,0%);fill-opacity:1;" d="M 4.046875 14.46875 L 14.71875 14.46875 L 14.71875 17.125 L 4.046875 17.125 Z M 4.046875 14.46875 "/>
<path style=" stroke:none;fill-rule:nonzero;fill:rgb(0%,0%,0%);fill-opacity:1;" d="M 25.28125 14.46875 L 38.4375 14.46875 L 38.4375 17.125 L 25.28125 17.125 Z M 25.28125 14.46875 "/>
<path style=" stroke:none;fill-rule:nonzero;fill:rgb(0%,0%,0%);fill-opacity:1;" d="M 27.59375 10.203125 L 21.90625 4.6875 L 20.015625 2.84375 L 19.96875 2.890625 L 14.234375 8.359375 L 12.328125 10.203125 L 14.171875 12.125 L 18.578125 7.921875 L 18.578125 31.84375 L 21.28125 31.84375 L 21.28125 7.78125 L 23.875 10.28125 L 25.765625 12.125 Z M 27.59375 10.203125 "/>
</g>
</svg>
