<?xml version="1.0" encoding="utf-8"?>
<!-- Svg Vector Icons : http://www.onlinewebfonts.com/icon -->
<!DOCTYPE svg PUBLIC "-//W3C//DTD SVG 1.1//EN" "http://www.w3.org/Graphics/SVG/1.1/DTD/svg11.dtd">
<svg version="1.1" xmlns="http://www.w3.org/2000/svg" xmlns:xlink="http://www.w3.org/1999/xlink" x="0px" y="0px" viewBox="0 0 256 256" enable-background="new 0 0 256 256" xml:space="preserve">
<metadata> Svg Vector Icons : http://www.onlinewebfonts.com/icon </metadata>
<g><g><g><path fill="#000000" d="M177.9,8.8c-0.1,0.5-0.5,1.8-0.8,3c-0.6,2.3-1.1,2.6-2.9,1.3c-1.3-0.9-0.7-2.2-6.1,13.5c-4.6,13.5-7.3,20.9-11.6,31.5c-5.4,13.4-14.2,31.3-15.3,31.3c-0.2,0-0.4-1.6-0.2-3.7c0.2-3.9,1.1-5.8,2.9-5.8c0.5,0,1.3-0.6,1.7-1.3c1-1.6,0.6-1.9-3.2-2.7c-6.5-1.4-9.6,1.6-9.6,9.2c0,4.7,1.2,8.9,4.1,15c9.1,18.5,27.3,32.6,35.7,27.7c2.5-1.4,3.6-3.7,3.9-7.9c0.1-2.4,0-3.7-0.3-3.9c-1-0.6-2.5,0.2-2.8,1.7c-0.4,2-2.4,3.5-4.7,3.5c-2-0.1-7.1-1.9-7.3-2.8c-0.3-1.1,18.2-8.3,33.7-13.1c10.7-3.3,25.4-7.3,36.3-10c9.4-2.3,8.8-1.9,8-4.9c-0.2-0.8,0.1-1,3.2-1.3l3.4-0.3l-0.6-2l-0.6-2.1l-3.1,0.1l-3.1,0.1l0.3-1.5c0.2-1,0.1-1.5-0.3-1.5c-0.3,0-4.1,0.8-8.4,1.7c-21,4.7-52.1,14.6-73.7,23.4l-5.5,2.2l-1.4-1.6c-0.7-0.9-1.3-1.9-1.2-2.1c0.1-0.3,3.6-2,7.8-3.9c15.8-7.1,34.9-16.9,50.6-26.1c8-4.7,22.3-14,22.3-14.4c0-0.2-0.6-0.8-1.3-1.4l-1.3-1.1l2.6-1.3c2.8-1.4,2.8-1.5,0.6-4.2l-0.9-1.2l-2.6,1.7c-2.5,1.6-2.6,1.6-3.3,0.7c-0.3-0.5-0.7-1.1-0.8-1.4c-0.2-0.6-1.8,0.2-13.1,7.3c-18.4,11.5-40.1,23.5-38.1,21.1c0.5-0.6,3.8-4.1,7.2-7.6c9.9-10.3,20.3-22.3,28.2-32.5l4.1-5.3l-1.5-0.4c-0.8-0.2-1.4-0.5-1.4-0.6c0-0.2,0.7-1.3,1.6-2.6c2.5-3.5,2.5-3.4,0.7-4.5c-0.9-0.5-1.9-1-2.2-1s-1.5,1.3-2.7,3l-2,3l-1.4-1.3l-1.3-1.3l-2.2,2.6c-1.2,1.4-5,6-8.3,10.1c-9.9,12-25.8,29.7-26.2,29.4c-0.1-0.1,0.9-2.5,2.1-5.4c5.8-13,13.4-33.2,16.8-44.4c1-3.3,1.9-6.4,2.1-6.9c0.2-0.7-0.1-0.8-1.5-0.8c-1.9,0-1.9,0.2-0.7-4.4c0.2-0.9,0.3-1.8,0.3-1.8c-0.1,0-1-0.2-2.2-0.4C178.5,8,178.1,8.1,177.9,8.8z"/><path fill="#000000" d="M125.6,84.1c-42.7,29.7-81.1,71.1-110.4,118.8c-5.1,8.3-5.2,8.5-5.2,11.4c0.1,10.7,18.4,27.3,35.7,32.3c5,1.4,11.2,1.7,13.9,0.5c2.1-0.9,3.1-2.1,6.8-8.5c21.7-37.9,59.9-79.1,97.6-105.3c1.9-1.3,3.6-2.5,3.8-2.7c0.2-0.1-0.6-0.3-1.7-0.3c-9.5-0.2-24.1-13.1-31.6-27.9c-4-7.8-5.3-16.1-3.4-20.6c0.4-1,0.7-1.8,0.6-1.8C131.6,80,128.9,81.8,125.6,84.1z"/></g></g></g>
</svg>