<?xml version="1.0" encoding="UTF-8" standalone="no"?>
<!-- Svg Vector Icons : http://www.onlinewebfonts.com/icon -->

<svg
   version="1.1"
   x="0px"
   y="0px"
   viewBox="0 0 39.999999 40"
   enable-background="new 0 0 256 256"
   xml:space="preserve"
   id="svg22"
   sodipodi:docname="STSIcon.svg"
   width="40"
   height="40"
   inkscape:version="1.1.2 (0a00cf5339, 2022-02-04)"
   xmlns:inkscape="http://www.inkscape.org/namespaces/inkscape"
   xmlns:sodipodi="http://sodipodi.sourceforge.net/DTD/sodipodi-0.dtd"
   xmlns="http://www.w3.org/2000/svg"
   xmlns:svg="http://www.w3.org/2000/svg"><defs
   id="defs26" /><sodipodi:namedview
   id="namedview24"
   pagecolor="#ffffff"
   bordercolor="#666666"
   borderopacity="1.0"
   inkscape:pageshadow="2"
   inkscape:pageopacity="0.0"
   inkscape:pagecheckerboard="0"
   showgrid="false"
   width="40px"
   fit-margin-top="0"
   fit-margin-left="0"
   fit-margin-right="0"
   fit-margin-bottom="0"
   inkscape:zoom="10.0625"
   inkscape:cx="27.925466"
   inkscape:cy="1.9875776"
   inkscape:window-width="1860"
   inkscape:window-height="1051"
   inkscape:window-x="1980"
   inkscape:window-y="0"
   inkscape:window-maximized="1"
   inkscape:current-layer="svg22" />
<metadata
   id="metadata2"> Svg Vector Icons : http://www.onlinewebfonts.com/icon </metadata>
<g
   id="g20"
   transform="matrix(0.16940053,0,0,0.16940053,-0.95618936,-1.4721777)"><g
     id="g18"><g
       id="g16"><path
         fill="#000000"
         d="m 106.9,11.4 c -1.1,1.2 -1.4,2.2 -1.4,5.6 v 4.2 h -8.8 c -4.8,0 -9.9,0.3 -11.4,0.7 -4.1,1 -8.1,4.3 -10,8.1 l -1.6,3.3 V 133.8 234.3 L 75,237 c 1.6,3.4 6,7.2 9.2,8.2 3.6,1.1 84.1,1.1 87.8,0 3.4,-1 8.6,-6.2 9.6,-9.6 0.6,-2 0.7,-25.8 0.7,-102.4 V 33.3 l -1.6,-3.2 c -0.9,-1.7 -2.7,-4.1 -4.1,-5.2 -3.8,-3 -7,-3.7 -17.9,-3.7 h -9.6 v -4.4 c 0,-7.2 1.1,-6.9 -21.7,-6.9 h -19.3 z m 61.4,25.7 2.1,2.1 v 95.3 95.3 l -2.1,2.1 -2.1,2.1 H 128 89.8 l -2.1,-2.1 -2.1,-2.1 V 134.5 39.2 l 2.1,-2.1 2.1,-2.1 h 38.2 38.2 z"
         id="path4" /><path
         fill="#000000"
         d="m 93.2,42.6 c -1.1,1.1 -1.1,29.9 0,31 1.1,1.1 68.6,1.1 69.7,0 1.1,-1.1 1.1,-29.9 0,-31 -1.1,-1.1 -68.7,-1.1 -69.7,0 z"
         id="path6" /><path
         fill="#000000"
         d="m 93,81.1 c -0.4,0.7 -0.6,6.9 -0.6,15.5 0,11.9 0.2,14.5 0.9,15.1 1.3,1.1 68,1.1 69.3,0 0.7,-0.6 0.9,-3.4 0.9,-15.1 0,-8.7 -0.3,-14.8 -0.6,-15.5 -0.6,-1.1 -1.7,-1.2 -35,-1.2 -33.2,0 -34.2,0.1 -34.9,1.2 z"
         id="path8" /><path
         fill="#000000"
         d="m 93.4,119 c -0.9,0.8 -1,3.1 -1,15.5 0,13.3 0.1,14.6 1.1,15.5 1.1,0.9 4.4,1.1 34.6,1.1 31.5,0 33.5,-0.1 34.4,-1.1 0.9,-1 1.1,-3.1 1.1,-15.6 0,-12.2 -0.1,-14.5 -1,-15.4 -0.9,-0.9 -4.9,-1 -34.6,-1 -29.7,0 -33.7,0.1 -34.6,1 z"
         id="path10" /><path
         fill="#000000"
         d="m 93.8,157.1 c -1.4,0.9 -1.4,1.2 -1.4,15.5 0,12.4 0.1,14.7 1,15.5 0.9,0.9 4.9,1 34.6,1 29.7,0 33.7,-0.1 34.6,-1 0.9,-0.8 1,-3.1 1,-15.5 0,-14.4 0,-14.6 -1.4,-15.5 -1.2,-0.9 -5.6,-1 -34.2,-1 -28.7,0 -33,0.1 -34.2,1 z"
         id="path12" /><path
         fill="#000000"
         d="m 93.2,195.5 c -1,1 -1.1,28.7 -0.1,30.5 0.6,1.1 1.7,1.2 35,1.2 33.3,0 34.3,-0.1 35,-1.2 0.9,-1.8 0.9,-29.5 -0.1,-30.5 -1.2,-1 -68.8,-1 -69.8,0 z"
         id="path14" /></g></g></g>
</svg>
