<?xml version="1.0" encoding="UTF-8" standalone="no"?>
<!-- Svg Vector Icons : http://www.onlinewebfonts.com/icon -->

<svg
   version="1.1"
   x="0px"
   y="0px"
   viewBox="0 0 256 256"
   enable-background="new 0 0 256 256"
   xml:space="preserve"
   id="svg22"
   sodipodi:docname="STSIconLarge.svg"
   inkscape:version="1.1.2 (0a00cf5339, 2022-02-04)"
   xmlns:inkscape="http://www.inkscape.org/namespaces/inkscape"
   xmlns:sodipodi="http://sodipodi.sourceforge.net/DTD/sodipodi-0.dtd"
   xmlns="http://www.w3.org/2000/svg"
   xmlns:svg="http://www.w3.org/2000/svg"><defs
   id="defs26" /><sodipodi:namedview
   id="namedview24"
   pagecolor="#ffffff"
   bordercolor="#666666"
   borderopacity="1.0"
   inkscape:pageshadow="2"
   inkscape:pageopacity="0.0"
   inkscape:pagecheckerboard="0"
   showgrid="false"
   inkscape:zoom="2.515625"
   inkscape:cx="128"
   inkscape:cy="128"
   inkscape:window-width="1860"
   inkscape:window-height="1051"
   inkscape:window-x="1980"
   inkscape:window-y="0"
   inkscape:window-maximized="1"
   inkscape:current-layer="svg22" />
<metadata
   id="metadata2"> Svg Vector Icons : http://www.onlinewebfonts.com/icon </metadata>
<g
   id="g20"><g
     id="g18"><g
       id="g16"><path
         fill="#000000"
         d="M106.9,11.4c-1.1,1.2-1.4,2.2-1.4,5.6v4.2h-8.8c-4.8,0-9.9,0.3-11.4,0.7c-4.1,1-8.1,4.3-10,8.1l-1.6,3.3v100.5v100.5L75,237c1.6,3.4,6,7.2,9.2,8.2c3.6,1.1,84.1,1.1,87.8,0c3.4-1,8.6-6.2,9.6-9.6c0.6-2,0.7-25.8,0.7-102.4V33.3l-1.6-3.2c-0.9-1.7-2.7-4.1-4.1-5.2c-3.8-3-7-3.7-17.9-3.7h-9.6v-4.4c0-7.2,1.1-6.9-21.7-6.9h-19.3L106.9,11.4z M168.3,37.1l2.1,2.1v95.3v95.3l-2.1,2.1l-2.1,2.1H128H89.8l-2.1-2.1l-2.1-2.1v-95.3V39.2l2.1-2.1l2.1-2.1H128h38.2L168.3,37.1z"
         id="path4" /><path
         fill="#000000"
         d="M93.2,42.6c-1.1,1.1-1.1,29.9,0,31c1.1,1.1,68.6,1.1,69.7,0c1.1-1.1,1.1-29.9,0-31C161.8,41.5,94.2,41.5,93.2,42.6z"
         id="path6" /><path
         fill="#000000"
         d="M93,81.1c-0.4,0.7-0.6,6.9-0.6,15.5c0,11.9,0.2,14.5,0.9,15.1c1.3,1.1,68,1.1,69.3,0c0.7-0.6,0.9-3.4,0.9-15.1c0-8.7-0.3-14.8-0.6-15.5c-0.6-1.1-1.7-1.2-35-1.2C94.7,79.9,93.7,80,93,81.1z"
         id="path8" /><path
         fill="#000000"
         d="M93.4,119c-0.9,0.8-1,3.1-1,15.5c0,13.3,0.1,14.6,1.1,15.5c1.1,0.9,4.4,1.1,34.6,1.1c31.5,0,33.5-0.1,34.4-1.1c0.9-1,1.1-3.1,1.1-15.6c0-12.2-0.1-14.5-1-15.4c-0.9-0.9-4.9-1-34.6-1C98.3,118,94.3,118.1,93.4,119z"
         id="path10" /><path
         fill="#000000"
         d="M93.8,157.1c-1.4,0.9-1.4,1.2-1.4,15.5c0,12.4,0.1,14.7,1,15.5c0.9,0.9,4.9,1,34.6,1s33.7-0.1,34.6-1c0.9-0.8,1-3.1,1-15.5c0-14.4,0-14.6-1.4-15.5c-1.2-0.9-5.6-1-34.2-1C99.3,156.1,95,156.2,93.8,157.1z"
         id="path12" /><path
         fill="#000000"
         d="M93.2,195.5c-1,1-1.1,28.7-0.1,30.5c0.6,1.1,1.7,1.2,35,1.2c33.3,0,34.3-0.1,35-1.2c0.9-1.8,0.9-29.5-0.1-30.5C161.8,194.5,94.2,194.5,93.2,195.5z"
         id="path14" /></g></g></g>
</svg>
